# xmcd
#
# Track frame offsets:
#	150
#	13965
#	35903
#	53125
#	75575
#	93083
#	105143
#	118713
#	136160
#	153520
#	167988
#	179433
#	200753
#	212830
#	236588
#
# Disc length: 3416 seconds
#
# Revision: 3
# Processed by: cddbd v1.5.2PL0 Copyright (c) Steve Scherf et al.
# Submitted via: audiograbber 1.83.01
#
DISCID=ca0d560f
DTITLE=Various Artist - Blues Busters Volume 1
DYEAR=1993
DGENRE=Blues
TTITLE0=Luther "Guitar Junior" Johnson - Come On Back To Me
TTITLE1=The Smokin' Joe Kubek Band - Walk With You
TTITLE2=Ann Peebles - Fear No Evil
TTITLE3=Champion Jack Dupree - Dupree Special
TTITLE4=Byther Smith - I Got So Much Love
TTITLE5=Sugar Ray featuring The Bluetones - Fast Boogie
TTITLE6=Eddie Hinton - I Found A True Love
TTITLE7=Larry Davis - Letter From My Darling
TTITLE8=Little Jimmy King - Another Mans Cologne
TTITLE9=John Mooney - Lovin' Mood
TTITLE10=Jimmy McCracklin with Irma Thomas - It's Gotta Be Love
TTITLE11=Charles Brown with Bonnie Raitt - Someone To Love
TTITLE12=Lowell Fulson - Ain't That Sweet
TTITLE13=Otis Clay - Don't Burn The Bridge
TTITLE14=Ron Levy's Wild Kingdom - Levtronic Blues 
EXTD=
EXTT0=
EXTT1=
EXTT2=
EXTT3=
EXTT4=
EXTT5=
EXTT6=
EXTT7=
EXTT8=
EXTT9=
EXTT10=
EXTT11=
EXTT12=
EXTT13=
EXTT14=
PLAYORDER=
